<?xml version="1.0" encoding="UTF-8"?>
<svg id="Calque_1" xmlns="http://www.w3.org/2000/svg" xmlns:xlink="http://www.w3.org/1999/xlink" viewBox="0 0 983.7 1190.6">
  <defs>
    <style>
      .cls-1, .cls-2 {
        fill: none;
      }

      .cls-3 {
        fill: #214291;
      }

      .cls-4 {
        clip-path: url(#clippath-1);
      }

      .cls-5 {
        clip-path: url(#clippath-2);
      }

      .cls-6 {
        fill: #eb5b4a;
      }

      .cls-7 {
        fill: #fff;
      }

      .cls-2 {
        stroke: #eb5b4a;
        stroke-width: 7px;
      }

      .cls-8 {
        clip-path: url(#clippath);
      }
    </style>
    <clipPath id="clippath">
      <rect class="cls-1" width="983.7" height="1190.6"/>
    </clipPath>
    <clipPath id="clippath-1">
      <rect class="cls-1" width="983.7" height="1190.6"/>
    </clipPath>
    <clipPath id="clippath-2">
      <rect class="cls-1" x="31.9" y="18.6" width="804.4" height="1152.2"/>
    </clipPath>
  </defs>
  <g class="cls-8">
    <path class="cls-6" d="M776.6,191.5h58.3v-13.1h-40.2v-21.3l37,.6v-11.9l-37,.6v-18.1h39.7v-13.1h-57.8c.3,8.9.6,26.6.6,38.3s-.3,29.6-.6,38M725.9,192.8c13.6,0,19.7-4.1,24.2-14.1h1v12.8c0,0,16.6,0,16.6,0-.2-13.8-.2-25.3-.2-37.7h-33v10.4h9c5.1,0,7.7,1.8,7.7,7.6-3.7,5.2-8.3,6.9-16.2,6.9-13,0-19-7-19-24.1s.3-15.7,1.7-25.1c3.8-1,8.2-1.7,13.2-1.7,11.1,0,16.3,5.6,17.8,17.8l18.4-2.1c-2-20-13.7-29.5-34.4-29.5s-35.3,12.7-35.3,39.4,9.6,39.4,28.5,39.4M668.3,163.5h-21.6c3.4-13.1,6.8-26.3,10.3-40.4h1c3.5,14.1,6.8,27.3,10.3,40.4M620.4,191.5h18.6l4.7-17h27.5l4.6,17h18.8c-7.7-26-14.1-48.8-21.6-76.3h-31c-7.6,27.6-13.9,50.3-21.6,76.3M569.4,191.5h50.4v-13.2h-32c-.2-5.3-.3-15.3-.3-25.7s.1-24.8.4-37.4h-18.5c.4,12.6.5,26.8.5,38.2s0,21.7-.5,38.1M516.6,157.2c-1.4-.4-1.9-1.6-1.9-3.1v-26.9h13.1c10.3,0,16.1,4,16.1,14.7s-5.6,14.4-14.2,15.3h-13.1ZM496.8,191.5h18.3c-.2-7-.3-13.7-.3-17.8s0-6.9-.8-12.6l1.1-.2c2.6,6.5,6.1,8.3,16.1,8.3,22.7,0,30.9-8.7,30.9-26.7s-9.7-27.3-30.9-27.3h-34.4l.2,38.2-.2,38.1ZM441.1,163.5h-21.6c3.4-13.1,6.8-26.3,10.3-40.4h1c3.5,14.1,6.8,27.3,10.3,40.4M393.2,191.5h18.6l4.7-17h27.5l4.6,17h18.8c-7.7-26-14.1-48.8-21.6-76.3h-31c-7.6,27.6-13.9,50.3-21.6,76.3M342.2,191.5h50.4v-13.2h-32c-.2-5.3-.3-15.3-.3-25.7s.1-24.8.4-37.4h-18.5c.4,12.6.5,26.8.5,38.2s-.1,21.7-.5,38.1"/>
    <path class="cls-6" d="M800.4,56.6h-14c-1.2-.9-1.6-2.4-1.6-4.2v-20.2h14c10,0,14.9,3.3,14.9,12.3s-4.4,11.6-13.3,12.1M766.7,96.5h18.2v-28.7h14.3c8.8,0,12.6,4.1,13.7,12.2.7,5.7,1.7,11.6,3.3,16.5h19.5c-1.6-4.4-3.9-13.1-4.8-18-1.9-10.4-7.4-15.5-22.3-16v-1.4c15.4-.1,23.6-5.5,23.6-20.1s-5.8-20.8-29.9-20.8h-35.6c.3,11.2.6,26.8.6,38.2s-.3,27-.6,38.1M723.9,97.7c25.2,0,32.8-10.8,32.8-33.1V20.2h-17.5v44.5c0,7.5-.4,11.8-1.2,16.6-3.7,1.5-7.5,2.2-13,2.2-9.2,0-14.8-4.7-14.8-18.4V20.2h-17.5v44.4c0,22.3,9.3,33.1,31.2,33.1M653.4,97.8c16.7,0,31.6-7.6,31.6-23.4,0-32.5-44.9-9.6-44.9-32.2s.4-5.2,1.2-7.7c3.4-.9,6.5-1.2,10.7-1.2,9.9,0,13.8,4,14.7,13.4l17.7-1.7c-1.8-19-13.6-26-32.8-26s-29.4,7.5-29.4,21.9c0,33.6,44.7,9.8,44.7,32.4s-.5,5.8-1.2,8.8c-3.6.9-8,1.4-12.2,1.4-9.9,0-14.2-4.1-15.4-12.6l-18.5.5c1.1,16.1,10.1,26.4,33.8,26.4M529.7,79.1v17.4h61.1v-16.4c-12.2,0-26.5,0-45.2.4v-1.3c16.8-14.3,30.7-28.2,44.4-42.6v-16.4h-59.5v16.3c11.8,0,25.5,0,43.6-.4v1.1c-16.7,14-30.7,27.8-44.4,41.9M463.6,79.1v17.4h61.1v-16.4c-12.2,0-26.5,0-45.2.4v-1.3c16.8-14.3,30.7-28.2,44.4-42.6v-16.4h-59.5v16.3c11.8,0,25.5,0,43.6-.4v1.1c-16.7,14-30.7,27.8-44.4,41.9M434.8,68.5h-21.6c3.4-13.1,6.8-26.3,10.3-40.4h1c3.5,14.1,6.8,27.3,10.3,40.4M386.9,96.5h18.6l4.7-17h27.5l4.6,17h18.8c-7.7-26-14.1-48.8-21.6-76.3h-31c-7.6,27.6-13.9,50.3-21.6,76.3M352.6,97.8c19.6,0,29.2-11.2,29.2-30.4s-.2-31,.5-47.2h-45.8v12.4h27.4c0-.1,0,34.5,0,34.5,0,5.3-.3,10-1.1,15-2.6.6-5.6,1.1-9.1,1.1-8.7,0-12.2-3.5-12.6-14.3h-17.6c0,19.8,9.4,28.9,29.1,28.9"/>
    <path class="cls-6" d="M510.6,1170.6h8.2v-15.8c0,0,13.5,0,13.5,0,0,4,0,11.2-.2,15.8h8.2c-.1-3.9-.1-11.1-.1-17.1s0-13.3.1-17.2h-8.2c.1,4.5.2,9.5.2,13.6h-13.6v-13.6c0,0-8.1,0-8.1,0,.1,5.8.2,11.8.2,17.2s0,11.4-.2,17.1M491.4,1171.1c8.8,0,14.4-4.4,15.6-12.8h-8.1c0,1.7-.3,3.7-.6,5.8-1.7.4-3.4.8-5.6.8-5.9,0-8.5-3.2-8.5-10.9s.1-7.1.8-11.3c1.7-.4,3.7-.8,5.9-.8,5,0,7.3,2.5,8,8.3l8.3-.9c-1-9.3-6.2-13.6-15.5-13.6s-15.9,5.7-15.9,17.7,5.4,17.7,15.7,17.7M471.2,1171.2c3.2,0,4.5-1.3,4.5-3.4s-1.2-3.4-4.5-3.4-4.4,1.2-4.4,3.4,1.2,3.4,4.4,3.4M438.9,1170.6h26.2v-5.9h-18.1v-9.6l16.6.3v-5.4l-16.6.3v-8.1h17.9v-5.9h-26c.1,4,.3,12,.3,17.2s-.1,13.3-.3,17.1M416.1,1171.1c6.1,0,8.9-1.8,10.9-6.3h.5v5.8s7.5,0,7.5,0c0-6.2,0-11.4,0-17h-14.9v4.7h4.1c2.3,0,3.5.8,3.5,3.4-1.7,2.3-3.7,3.1-7.3,3.1-5.9,0-8.5-3.2-8.5-10.8s.1-7.1.8-11.3c1.7-.4,3.7-.8,5.9-.8,5,0,7.3,2.5,8,8l8.3-.9c-.9-9-6.2-13.3-15.5-13.3s-15.9,5.7-15.9,17.7,4.3,17.7,12.8,17.7M391.3,1158h-9.7c1.5-5.9,3.1-11.8,4.6-18.2h.4c1.6,6.3,3.1,12.3,4.6,18.2M369.7,1170.6h8.4l2.1-7.6h12.4l2.1,7.6h8.5c-3.5-11.7-6.3-22-9.7-34.3h-13.9c-3.4,12.4-6.3,22.6-9.7,34.3M346.1,1170.6h22.7v-5.9h-14.4c0-2.4-.1-6.9-.1-11.6s0-11.2.2-16.8h-8.3c.2,5.7.2,12.1.2,17.2s0,9.8-.2,17.1M322.6,1155.1c-.6-.2-.9-.7-.9-1.4v-12.1h5.9c4.6,0,7.2,1.8,7.2,6.6s-2.5,6.5-6.4,6.9h-5.9ZM313.7,1170.6h8.2c0-3.2-.1-6.2-.1-8s0-3.1-.4-5.7h.5c1.2,2.8,2.7,3.6,7.2,3.6,10.2,0,13.9-3.9,13.9-12s-4.4-12.3-13.9-12.3h-15.5v17.2c0,0,0,17.1,0,17.1ZM299.3,1158h-9.7c1.5-5.9,3.1-11.8,4.6-18.2h.5c1.6,6.3,3.1,12.3,4.6,18.2M277.7,1170.6h8.4l2.1-7.6h12.4l2.1,7.6h8.5c-3.5-11.7-6.3-22-9.7-34.3h-13.9c-3.4,12.4-6.3,22.6-9.7,34.3M254.2,1170.6h22.7v-5.9h-14.4c0-2.4-.1-6.9-.1-11.6s0-11.2.2-16.8h-8.3c.2,5.7.2,12.1.2,17.2s0,9.8-.2,17.1M235,1152.6h-6.3c-.5-.4-.7-1.1-.7-1.9v-9.1h6.3c4.5,0,6.7,1.5,6.7,5.5s-2,5.2-6,5.4M219.8,1170.6h8.2v-12.9h6.4c4,0,5.7,1.8,6.2,5.5.3,2.6.8,5.2,1.5,7.4h8.8c-.7-2-1.8-5.9-2.2-8.1-.9-4.7-3.3-7-10-7.2v-.6c6.9,0,10.6-2.5,10.6-9s-2.6-9.4-13.5-9.4h-16c.1,5,.3,12.1.3,17.2s-.1,12.1-.3,17.1M200.5,1171.1c11.3,0,14.8-4.9,14.8-14.9v-20h-7.9v20c0,3.4-.2,5.3-.5,7.5-1.7.7-3.4,1-5.9,1-4.1,0-6.7-2.1-6.7-8.3v-20.2h-7.9v20c0,10,4.2,14.9,14,14.9M168.8,1171.1c7.5,0,14.2-3.4,14.2-10.5,0-14.6-20.2-4.3-20.2-14.5s.2-2.3.5-3.5c1.5-.4,2.9-.5,4.8-.5,4.5,0,6.2,1.8,6.6,6l8-.8c-.8-8.5-6.1-11.7-14.8-11.7s-13.2,3.4-13.2,9.9c0,15.1,20.1,4.4,20.1,14.6s-.2,2.6-.5,4c-1.6.4-3.6.6-5.5.6-4.5,0-6.4-1.8-6.9-5.7l-8.3.2c.5,7.2,4.5,11.9,15.2,11.9M124.3,1162.7v7.8h27.5v-7.4c-5.5,0-11.9,0-20.3.2v-.6c7.6-6.4,13.8-12.7,20-19.2v-7.4h-26.8v7.3c5.3,0,11.5,0,19.6-.2v.5c-7.5,6.3-13.8,12.5-20,18.9M93.9,1162.7v7.8h27.5v-7.4c-5.5,0-11.9,0-20.3.2v-.6c7.6-6.4,13.8-12.7,20-19.2v-7.4h-26.8v7.3c5.3,0,11.5,0,19.6-.2v.5c-7.5,6.3-13.8,12.5-20,18.9M80.5,1158h-9.7c1.5-5.9,3.1-11.8,4.6-18.2h.4c1.6,6.3,3.1,12.3,4.6,18.2M59,1170.6h8.4l2.1-7.6h12.4l2.1,7.6h8.5c-3.5-11.7-6.3-22-9.7-34.3h-13.9c-3.4,12.4-6.3,22.6-9.7,34.3M44.5,1171.1c8.8,0,13.1-5,13.1-13.7s0-13.9.2-21.2h-20.6v5.6h12.3s0,15.5,0,15.5c0,2.4-.1,4.5-.5,6.8-1.2.3-2.5.5-4.1.5-3.9,0-5.5-1.6-5.7-6.4h-7.9c0,8.9,4.2,13,13.1,13"/>
    <path class="cls-6" d="M263.8,1118.9h26.2v-5.9h-18.1v-9.6l16.6.3v-5.4l-16.6.3v-8.1h17.9v-5.9h-26c.1,4,.3,12,.3,17.2s-.1,13.3-.3,17.1M244.5,1100.9h-6.3c-.5-.4-.7-1.1-.7-1.9v-9.1h6.3c4.5,0,6.7,1.5,6.7,5.5s-2,5.2-6,5.4M229.4,1118.9h8.2v-12.9h6.4c4,0,5.7,1.8,6.2,5.5.3,2.6.8,5.2,1.5,7.4h8.8c-.7-2-1.8-5.9-2.2-8.1-.9-4.7-3.3-7-10-7.2v-.6c6.9,0,10.6-2.5,10.6-9s-2.6-9.4-13.5-9.4h-16c.1,5,.3,12.1.3,17.2s-.1,12.2-.3,17.1M210.8,1099.3h-6.3c-.6-.3-.8-.7-.8-1.5v-8h6.4c4.6,0,6.8,1.4,6.8,4.8s-1.8,4.5-6,4.7M211.6,1113.3h-7.1c-.6-.3-.8-.8-.8-1.6v-8.2h7.1c4.9,0,7,1.5,7,5s-2,4.6-6.3,4.8M195.9,1118.9h16.7c10.1,0,13.5-3.1,13.5-9.1s-3.1-8.3-11.7-8.3v-.6c8.2-.2,10.9-3.5,10.9-8.1s-3.1-8.2-13.5-8.2h-15.8c.1,4.8.2,12.8.2,17.2s0,12.4-.2,17.1M182.9,1118.9h8.2c-.2-5.7-.2-11.4-.2-17.2s0-11.5.2-17.1h-8.2c.1,5.7.2,11.4.2,17.2s0,11.5-.2,17.1M157.9,1118.9h22.7v-5.9h-14.4c0-2.4-.1-6.9-.1-11.6s0-11.2.2-16.8h-8.3c.2,5.7.2,12.1.2,17.2s0,9.8-.2,17.1M110.9,1118.9h8.9l7.5-14.7h.9l7.5,14.7h8.9c-2.6-4.6-5-9.2-7.5-13.8-1.1-2.2-2.7-3.3-4.9-3.5v-.6c2.2-.1,3.9-1.3,4.9-3.5,2.3-4.4,4.5-8.7,6.9-13h-8.9l-6.9,14.3h-.9l-6.9-14.3h-8.9c2.4,4.3,4.6,8.6,6.9,13,1.1,2.2,2.7,3.3,4.9,3.5v.6c-2.2.1-3.9,1.3-4.9,3.5-2.5,4.6-4.9,9.2-7.5,13.8M99.8,1118.9h8.2c-.2-5.7-.2-11.4-.2-17.2s0-11.5.2-17.1h-8.2c.1,5.7.2,11.4.2,17.2s0,11.5-.2,17.1M80.6,1100.9h-6.3c-.5-.4-.7-1.1-.7-1.9v-9.1h6.3c4.5,0,6.7,1.5,6.7,5.5s-2,5.2-6,5.4M65.4,1118.9h8.2v-12.9h6.4c4,0,5.7,1.8,6.2,5.5.3,2.6.8,5.2,1.5,7.4h8.8c-.7-2-1.8-5.9-2.2-8.1-.9-4.7-3.3-7-10-7.2v-.6c6.9,0,10.6-2.5,10.6-9s-2.6-9.4-13.5-9.4h-16c.1,5,.3,12.1.3,17.2s-.1,12.2-.3,17.1M41.9,1103.4c-.6-.2-.9-.7-.9-1.4v-12.1h5.9c4.6,0,7.2,1.8,7.2,6.6s-2.5,6.5-6.4,6.9h-5.9ZM32.9,1118.9h8.2c0-3.2-.1-6.2-.1-8s0-3.1-.4-5.7h.5c1.2,2.8,2.7,3.6,7.2,3.6,10.2,0,13.9-3.9,13.9-12s-4.4-12.3-13.9-12.3h-15.5v17.2c0,0,0,17.1,0,17.1Z"/>
    <path class="cls-6" d="M819.3,247.3c10.3,0,15.8-5.4,15.8-13.8s-4-12.5-11.8-12.5-7.8,1.5-10.1,5.2h-.6c0-.1.6-10.7.6-10.7,6.9,0,13.4,0,19.9.2v-7.2h-27.4l-.6,20.5,6.8.8c2.5-2.2,4.9-3,8.2-3s6.1,2.2,6.1,7-.3,4.3-.9,6.1c-1.8.6-3.7,1-6,1-5,0-7.1-2.2-7.1-8.2h-8.8c0,10.6,5.5,14.5,16,14.5M770.4,242.7v4h30.3v-8.3c-5.2.2-9.9.2-16.2.2s-5.6.1-8.9.2v-.5c6.2-7,25.2-3,25.2-18.4s-5-11.9-14.9-11.9-15.5,4.5-15.5,14.8h9c0-2.8.1-5.2.6-7.7,2.2-.5,3.9-.8,6-.8,3.9,0,5.9,2,5.9,5.7,0,10.5-21.4,5.5-21.4,22.7M751.3,241c-5.6,0-8.2-3.7-8.2-12.5s.1-8,.8-12.8c2.1-1.1,4.1-1.4,6.4-1.4,5.5,0,8.2,3.7,8.2,12.5s-.1,8-.8,12.8c-2.1,1-4.1,1.4-6.4,1.4M750.8,247.3c10.8,0,16.7-6.4,16.7-19.7s-5.4-19.7-16.7-19.7-16.8,6.3-16.8,19.7,5.3,19.7,16.8,19.7M701,242.7v4h30.3v-8.3c-5.2.2-9.9.2-16.2.2s-5.6.1-8.8.2v-.5c6.2-7,25.2-3,25.2-18.4s-5.1-11.9-14.9-11.9-15.5,4.5-15.5,14.8h9c0-2.8.1-5.2.6-7.7,2.2-.5,3.9-.8,6-.8,3.9,0,5.8,2,5.8,5.7,0,10.5-21.4,5.5-21.4,22.7M667.5,246.7h9.2c-.1-6.1-.3-12.2-.3-18.4s0-9.2.2-13.3h10.7v-6.4h-30.3v6.4h10.6c.1,4.2.2,9.1.2,13.3,0,6.2-.2,12.3-.4,18.4M638.3,247.3c12.6,0,16.4-5.4,16.4-16.5v-22.2h-8.8v22.2c0,3.8-.2,5.9-.6,8.3-1.9.8-3.8,1.1-6.5,1.1-4.6,0-7.4-2.4-7.4-9.2v-22.5h-8.8v22.2c0,11.1,4.7,16.5,15.6,16.5M602.2,240.4c-6.5,0-9.4-3.6-9.4-12.2s.1-7.9.8-12.6c1.9-.5,4.1-.9,6.6-.9,6.5,0,9.5,3.5,9.5,12.2s-.2,7.9-.9,12.6c-1.9.5-4.1.9-6.6.9M601.2,247.3c11.7,0,17.8-6.4,17.8-19.7s-6.1-19.7-17.8-19.7-17.8,6.3-17.8,19.7,6,19.7,17.8,19.7M570.1,232.7h-10.8c1.7-6.6,3.4-13.2,5.2-20.2h.5c1.8,7,3.4,13.6,5.2,20.2M546.1,246.7h9.3l2.3-8.5h13.8l2.3,8.5h9.4c-3.8-13-7-24.4-10.8-38.2h-15.5c-3.8,13.8-7,25.2-10.8,38.2M516.7,214.3c4.6,0,6.9,3,6.9,8.1v2.7c-1.5,1.9-4.2,2.8-6.8,2.8-4.5,0-6.9-2.1-6.9-6.8s.3-4,.8-5.9c1.8-.5,3.6-.8,5.9-.8M516.7,207.9c-9.6,0-15.8,4.4-15.8,13s4.8,12.3,12.1,12.3,7.2-1.1,9.9-5.1h.7c0,5.7-.3,8.8-1,12.2-2,.4-3.9.7-5.9.7-3.4,0-5.3-1.5-6-5.7l-8.8,1c1.4,7.5,5.9,11,14.7,11s16.1-8,16.1-20.5-5.9-18.8-15.8-18.8M480.7,230.6h17.2v-5.3h-17.2v5.3ZM461.4,224.7c-4.6,0-6.4-1.8-6.4-5.2s.2-3.2.8-4.7c1.6-.4,3.4-.5,5.6-.5,4.3,0,6.4,1.8,6.4,5.2s-.2,3-.8,4.6c-1.6.4-3.5.6-5.6.6M461.4,240.9c-5.1,0-7-2.1-7-5.5s.1-3.2.6-5.1c1.9-.4,3.9-.6,6.2-.6,4.9,0,7.1,2,7.1,5.5s-.2,3.1-.7,5c-1.8.5-3.9.7-6.2.7M461.4,247.3c11.8,0,16-4.2,16-11s-2.8-8-9-9.2v-.8c5.6-1,7.9-3.8,7.9-8.3,0-6.6-4.6-10.1-14.9-10.1s-15,3.5-15,10.1,2.3,7.3,8,8.3v.8c-6.4,1.1-9.1,4.5-9.1,9.2,0,6.8,4.2,11,16.1,11"/>
    <path class="cls-6" d="M805.9,302h29.2v-6.5h-20.1v-10.7l18.5.3v-5.9l-18.5.3v-9h19.9v-6.6h-28.9c.2,4.5.3,13.3.3,19.2s-.1,14.8-.3,19M784.7,302.6c9.8,0,16-4.9,17.3-14.2h-9c-.1,1.9-.4,4.1-.7,6.5-1.9.4-3.8.8-6.2.8-6.5,0-9.4-3.5-9.4-12.2s.1-7.9.8-12.6c1.9-.5,4.1-.8,6.6-.8,5.6,0,8.2,2.8,8.9,9.2l9.2-1c-1.1-10.3-6.8-15.2-17.2-15.2s-17.7,6.3-17.7,19.7,6,19.7,17.5,19.7M728.9,302h8.9c-.2-6.2-.2-14-.2-22.3s0-6.4-.6-9.9h.7c1.2,4.4,2.3,7.3,3.5,10.2l9.4,22h12.8c0-6.3-.3-11.2-.3-19s0-12.8.3-19.1h-9c.2,5.9.3,15.2.3,22.4s0,6.3.5,9.9h-.7c-1.2-4.1-2.3-7.3-3.4-10.2l-9.2-22.1h-13c0,4.8.3,11.2.3,19.1s-.2,12.9-.3,19M712.9,288h-10.8c1.7-6.5,3.4-13.2,5.2-20.2h.5c1.8,7,3.4,13.7,5.1,20.2M688.9,302h9.3l2.3-8.5h13.8l2.3,8.5h9.4c-3.8-13-7-24.4-10.8-38.2h-15.5c-3.8,13.8-7,25.2-10.8,38.2M641.1,302h8.7c0-6,0-11.3,0-16.9s0-9.5,0-13.8h.5l8.9,30.7h9l8.8-30.7h.6v13.8s0,16.9,0,16.9h8.6c-.2-6.3-.5-12.7-.5-19s0-12.8.1-19.1h-13.8l-8,29.5h-.8l-8.1-29.5h-13.8c0,6.3,0,12.8,0,19.1s-.2,12.6-.5,19M619.7,282h-7c-.6-.5-.8-1.2-.8-2.1v-10.1h7c5,0,7.5,1.7,7.5,6.2s-2.2,5.8-6.7,6M602.9,302h9.1v-14.3h7.2c4.4,0,6.3,2,6.8,6.1.4,2.8.9,5.8,1.7,8.2h9.8c-.8-2.2-2-6.5-2.4-9-.9-5.2-3.7-7.8-11.1-8v-.7c7.7,0,11.8-2.8,11.8-10s-2.9-10.4-15-10.4h-17.8c.2,5.6.3,13.4.3,19.1s-.1,13.5-.3,19M569.3,302h29.1v-6.5h-20.1v-10.7l18.5.3v-5.9l-18.5.3v-9h19.8v-6.6h-28.9c.1,4.5.3,13.3.3,19.2s-.2,14.8-.3,19M530.8,302h9.2v-17.5c-.1,0,15,0,15,0,0,4.5,0,12.5-.2,17.5h9.1c-.1-4.3-.1-12.3-.1-19s0-14.8.1-19.1h-9.1c.1,5.1.2,10.6.2,15.2h-15.1v-15.2c.1,0-9,0-9,0,.2,6.4.2,13.1.2,19.1s0,12.7-.2,19"/>
  </g>
  <g>
    <path class="cls-6" d="M624.9,386.2h17.7c0,11.1,4.2,16.3,14.8,16.3s8.5-.5,12.2-1.7c.9-3.7,1.5-7.1,1.5-11.7,0-8.1-3.8-12.4-14.2-12.4h-11.9v-8l28.7-15.6v-1.5c-16.1.3-29.6.4-47.2.8v-14.7h61v17.2l-24.8,12.9v1.5c19.1.1,26.4,8,26.4,21.5s-11.6,24.5-32.1,24.5-32.1-7.9-32.1-29.1Z"/>
    <path class="cls-6" d="M694.2,386.2h17.7c0,11.1,4.2,16.3,14.8,16.3s8.5-.5,12.2-1.7c.9-3.7,1.5-7.1,1.5-11.7,0-8.1-3.8-12.4-14.2-12.4h-11.9v-8l28.7-15.6v-1.5c-16.1.3-29.6.4-47.2.8v-14.7h61v17.2l-24.8,12.9v1.5c19.1.1,26.4,8,26.4,21.5s-11.6,24.5-32.1,24.5-32.1-7.9-32.1-29.1Z"/>
  </g>
  <path class="cls-6" d="M764.2,358.6c0-6.8-.2-17.1-.3-22.3h33.7v7.6h-23.1v10.6l21.6-.3v6.9l-21.6-.4v12.4h23.4v7.6h-34c.2-4.9.3-15.7.3-22.2Z"/>
  <g>
    <path class="cls-6" d="M740.4,1167.2c0-1.9.8-2.8,2.5-2.8s2.3.7,2.4,2.1h-1.3c-.1-.7-.5-1.1-1.2-1.1s-.7,0-.9.1c0,.7-.1,1.2-.1,1.8,0,1.2.4,1.7,1.3,1.7s.9-.1,1.1-.5c0-.4-.2-.5-.5-.5h-.6v-.7h2.3c0,.9,0,1.7,0,2.6h-1.2v-.9s0,0,0,0c-.3.7-.7,1-1.7,1s-2-.9-2-2.8Z"/>
    <path class="cls-6" d="M745.9,1167.2c0-.8,0-1.9,0-2.7h2.5c1.7,0,2.1.6,2.1,1.5s-.6,1.4-1.7,1.4h0c1,.1,1.4.5,1.6,1.2,0,.3.2,1,.3,1.3h-1.4c-.1-.3-.2-.8-.2-1.2,0-.6-.3-.9-1-.9h-1v2h-1.3c0-.8,0-1.9,0-2.7ZM749.2,1166.3c0-.6-.3-.9-1-.9h-1v1.4c0,.1,0,.2.1.3h1c.6,0,.9-.3.9-.8Z"/>
    <path class="cls-6" d="M752.4,1164.6h2.2c.5,1.9,1,3.5,1.5,5.3h-1.3l-.3-1.2h-1.9l-.3,1.2h-1.3c.5-1.8,1-3.4,1.5-5.3ZM753.5,1165.1h0c-.2,1-.5,1.9-.7,2.8h1.5c-.2-.9-.5-1.8-.7-2.8Z"/>
    <path class="cls-6" d="M756.5,1167.2v-2.7s2.4,0,2.4,0c1.5,0,2.2.6,2.2,1.9s-.6,1.9-2.2,1.9-.9-.1-1.1-.6h0c0,.4,0,.5,0,.9s0,.8,0,1.2h-1.3v-2.7ZM758.8,1167.5c.6,0,1-.3,1-1.1s-.4-1-1.1-1h-.9v1.9c0,.1,0,.2.1.2h.9Z"/>
    <path class="cls-6" d="M761.6,1167.2c0-.8,0-1.8,0-2.7h1.3v2.1s2.1,0,2.1,0c0-.6,0-1.4,0-2.1h1.3c0,.6,0,1.7,0,2.7s0,2.1,0,2.7h-1.3c0-.7,0-1.8,0-2.5h-2.1v2.5s-1.3,0-1.3,0c0-.9,0-1.8,0-2.7Z"/>
    <path class="cls-6" d="M767,1167.2c0-.9,0-1.8,0-2.7h1.3c0,.9,0,1.8,0,2.7s0,1.8,0,2.7h-1.3c0-.9,0-1.8,0-2.7Z"/>
    <path class="cls-6" d="M768.7,1168.1h1.3c0,.6.4.8,1.1.8s.6,0,.9,0c0-.2,0-.4,0-.6,0-1.6-3.1,0-3.1-2.3s.9-1.5,2.1-1.5,2.2.5,2.3,1.8h-1.2c0-.5-.3-.8-1-.8s-.5,0-.8,0c0,.2,0,.4,0,.5,0,1.6,3.1,0,3.1,2.3s-1,1.6-2.2,1.6c-1.7,0-2.3-.7-2.4-1.8Z"/>
    <path class="cls-6" d="M774,1167.2c0-.9,0-1.8,0-2.7h1.9l1.1,4.1h.1l1.1-4.1h1.9c0,.9,0,1.8,0,2.7s0,1.8,0,2.7h-1.2v-4.3h0l-1.2,4.3h-1.3l-1.2-4.3h0c0,.6,0,1.2,0,1.9s0,1.5,0,2.4h-1.2c0-.9,0-1.8,0-2.7Z"/>
    <path class="cls-6" d="M781,1167.2c0-.8,0-2.1,0-2.7h4v.9h-2.8v1.3h2.6s0,.8,0,.8h-2.6s0,1.4,0,1.4h2.8v.9h-4.1c0-.6,0-1.9,0-2.7Z"/>
    <path class="cls-6" d="M786.8,1165.8c0-.3.2-.5.7-.5s.7.2.7.5-.2.5-.7.5-.7-.2-.7-.5ZM786.8,1169.5c0-.3.2-.5.7-.5s.7.2.7.5-.2.5-.7.5-.7-.2-.7-.5Z"/>
    <path class="cls-6" d="M792.9,1165.8h0c-1.3,0-2.2,0-3.1,0v-1.1h4.2v1.1c-1,1-1.9,2-3.1,3h0c1.3,0,2.3,0,3.2,0v1.1h-4.3v-1.2c1-1,1.9-2,3.1-2.9Z"/>
    <path class="cls-6" d="M795.1,1168.7h1.4l.3-1h-.1c-.2.3-.4.4-.7.4h-.4c-.4-1.2-.8-2.3-1.3-3.5h1.3l1,2.9h.1l1-2.9h1.3c-.6,1.6-1.1,3.2-1.3,4.1-.3,1-.6,1.2-1.5,1.2h-1.3l.2-1.2Z"/>
    <path class="cls-6" d="M800,1164.6h2.2c.5,1.9,1,3.5,1.5,5.3h-1.3l-.3-1.2h-1.9l-.3,1.2h-1.3c.5-1.8,1-3.4,1.5-5.3ZM801.1,1165.1h0c-.2,1-.5,1.9-.7,2.8h1.5c-.2-.9-.5-1.8-.7-2.8Z"/>
    <path class="cls-6" d="M805.6,1167.2c0-1.9.8-2.8,2.5-2.8s2.3.7,2.4,2.1h-1.3c-.1-.7-.5-1.1-1.2-1.1s-.7,0-.9.1c0,.7-.1,1.2-.1,1.8,0,1.2.4,1.7,1.3,1.7s.9-.1,1.1-.5c0-.4-.2-.5-.5-.5h-.6v-.7h2.3c0,.9,0,1.7,0,2.6h-1.2v-.9s0,0,0,0c-.3.7-.7,1-1.7,1s-2-.9-2-2.8Z"/>
    <path class="cls-6" d="M812.4,1164.6h2.2c.5,1.9,1,3.5,1.5,5.3h-1.3l-.3-1.2h-1.9l-.3,1.2h-1.3c.5-1.8,1-3.4,1.5-5.3ZM813.5,1165.1h0c-.2,1-.5,1.9-.7,2.8h1.5c-.2-.9-.5-1.8-.7-2.8Z"/>
    <path class="cls-6" d="M816.5,1168.7h1.4l.3-1h-.1c-.2.3-.4.4-.7.4h-.4c-.4-1.2-.8-2.3-1.3-3.5h1.3l1,2.9h.1l1-2.9h1.3c-.6,1.6-1.1,3.2-1.3,4.1-.3,1-.6,1.2-1.5,1.2h-1.3l.2-1.2Z"/>
    <path class="cls-6" d="M820.5,1167.2c0-1.9.8-2.8,2.5-2.8s2.5.9,2.5,2.8-.9,2.8-2.5,2.8-2.5-.9-2.5-2.8ZM824,1168.9c0-.7.1-1.2.1-1.8,0-1.2-.4-1.7-1.3-1.7s-.7,0-.9.1c0,.7-.1,1.2-.1,1.8,0,1.2.4,1.7,1.3,1.7s.7,0,.9-.1Z"/>
    <path class="cls-6" d="M825.8,1168.1h1.3c0,.6.4.8,1.1.8s.6,0,.9,0c0-.2,0-.4,0-.6,0-1.6-3.1,0-3.1-2.3s.9-1.5,2.1-1.5,2.2.5,2.3,1.8h-1.2c0-.5-.3-.8-1-.8s-.5,0-.8,0c0,.2,0,.4,0,.5,0,1.6,3.1,0,3.1,2.3s-1,1.6-2.2,1.6c-1.7,0-2.3-.7-2.4-1.8Z"/>
    <path class="cls-6" d="M830.8,1167.2c0-1.9.8-2.8,2.5-2.8s2.5.9,2.5,2.8-.9,2.8-2.5,2.8-2.5-.9-2.5-2.8ZM834.3,1168.9c0-.7.1-1.2.1-1.8,0-1.2-.4-1.7-1.3-1.7s-.7,0-.9.1c0,.7-.1,1.2-.1,1.8,0,1.2.4,1.7,1.3,1.7s.7,0,.9-.1Z"/>
  </g>
  <rect class="cls-7" x="12.9" width="841.9" height="1190.6"/>
  <rect class="cls-3" x="12.9" width="841.9" height="1190.6"/>
  <g class="cls-4">
    <path class="cls-2" d="M191,755.4s-21.7-114.1,13.9-117.2c53.5-4.6-3.1,156.2,17.8,167.5,27.2,14.7,45-169.1,86.9-156.7,31.4,9.3-49.6,142.7-33.4,162.1,19.3,23,54-91,86.9-65.9,29.3,22.2-51.5,88.3-20.2,112.5,31.7,24.5,172.3-309.7,214.9-295.5,69.9,23.3-214.1,361.5-184.6,387.1,41.8,36.3,236.2-398.7,280.8-377.8,62.8,29.5-234.4,364.9-171.7,406.7,34.7,23.1,86.4-161.8,170-168.6M9.5,343.5C225.7,301.2,189.5,28.2,252.5,40.3c74.7,14.4-70.4,221.6-46.9,255,28.7,40.7,64.7-114.1,105.7-100.5,48.9,16.3-27.6,125.6,3.8,160.1,33.1,36.4,84.6-78.6,116.1-69.5,58.2,16.8-164.5,251.8-107,286.3,41.7,25,123.6-261.5,189.9-233.3,25.3,10.8-9,52.7-35.3,80.8M4.6,1038.8s66.2,43.6,151.1-21.1c68.6,52.3,165.4,45.6,225.6,5.1,0,0,53.4,50.6,115.6,44.6M578.4,1139.7c16.9,4.5,65.3-4.8,107.1-44.2,19.7,17.4,36,38.4,73.1,21.5,34,33.6,75.7,30.6,108.3,28.3M492.9,1097.5c125,8.7,150.8-165.3,259.3-165.5,37.3,0,86.1,35.3,52.9,82,0,0-17.4-30.7-43.9-14.7,20.3,9.2,20.3,16.6,20.8,22.1-74.8,8,9,133.6,93.9,29.2,0,0,36.6,33.8,68.6,27.6M9.9,1004.1c75.7-6.5,120.6-159.1,224.1-175.5,66.6-7.2,124.9,64.5,66.6,103.4,6.1-29.7,1-35.8-5.1-39.9,0,0-.8,18-19.2,30,1.8-13.2-3.9-38.2-25.3-23.5-54,46.7,56.3,141.2,143.5,73.4,0,0,29.8,38.5,59.1,38.5M791.8,834.2l-13.5,82.7M811.9,675.7c-3.4-.8-134.8-37.5-200.1,78.5,29.7,1.3,53.1,16.7,60.4,40.3,36.4-19.8,93.3,2.7,99,38.7,23.4-25.3,89.8-17.1,116.4,15.8,13.3-22.4,72.5-41.6,92.6-31.4,1.6,12-4.4-103.7-155.9-138.5,2.3-13.6,3.8-26.1,3.8-26.1M585.9,978.7c9-15.2-21.2-41-44.3-13.5-22.6,33.6,3.5,60,22.8,56.9,59,0,57.6-138.8,101.3-176.5,0,20,5.2,34.9,9.4,48.4,5.7,18.2,1.3,38.3-11.9,52-6.1,6.3-9.5,6.8-9.5,6.8M99.7,692.9c-16.6,5.2-26.4,28.2-14,56.3,13.1-2.5,14.1,20.4-2.4,18.9-15.5,46.5,16.4,76.9,41.9,71.2,2.9,10.5,6.6,18.4,12.4,22.7,1.8-.9,6.1-2.5,8.4-3.8-2.9-8.3-4.9-15.3-5.2-21.9,54.5-17.1,37.4-63.2,20-83.6-20.1,5.4-20-8.3-8.1-13,8.8-18.1.8-58.4-33.8-51M112.2,633.1s-13.6-1.4-12.3-14.4c3.2-17,26-11.6,24.2,2.7-.7,5.8-3.6,27.7-4,30.8-9.3,75.9-2.6,95.4,10.9,159.4M67,580.9s-24,33.4-20,34.7c3.2,1,15.2,4.6,13.8,10.7-22.5,26.6-26.1,48.2-31,87.1,4.7.4,10.6,1.4,15.2,8.9-13.1,34.4-7.8,65.7-2.6,97.7,8.3-1.3,14.3.6,18.7,6.1,0,0-1.7,61.1,27.5,107.9M107.3,458.2c39.1-14.9,255.9,31.7,158.6,191.9-24.3-20.4-28.3-24.2-28.3-24.2l2.6-27.3c-13.3,14.5-56.3,16.1-50.7-32.4-24.1,40.8-100.8,25.8-96.3-22-42.6,39.9-85.2,3.2-85.9-28.1M3.2,418.7c46.1-111.4,348-150.8,297.3,33.4l-33.5-16.6-5-20s-33.5,45.6-63.7-8c-20.5,48.8-76,39.6-85.4,13.6,10.8,56.4-75.4,101.6-101,56.7M606.5,340.1l-85.1,77.2,81.3-8.2-16.7,153.7,79-89.4,35.2,153.2,46.5-164.7,82,135.6-20.1-205.8,94.8,62.8-77.7-116M370.3,633.3c58.9,8.2,60.7-36.3,11.6-46.2-36.8-7.4-61.3,25.2-35.3,42.3-5.8,35.3,11.9,100.7,54.7,78.8,42.6-21.9,90-207.5,110.6-210.7,10.4-1.6,7.9,20.5,23.6,32.4,0,0,9.4-17.4,9.2-17.7-11.7-17.9-7.1-46.3-24-55.5-25.6-14-66.2,24-113.3,125.4M71.6,125.7c-4.3-16-26.8-16-37.3,5.2-6.3,12.8-8.5,39,12.1,41.4,53.7,6.2,51.1-142.9,51.1-142.9,0,0,33,39.4,69,34.4.4,17.8-.6,35-2.4,51-4.8,43.5-15.1,77.3-18.1,86.8-11.3,35.7-51.6,59.9-66.7,31.3-13.6-25.6,31.2-62.2,46.1-30.7"/>
  </g>
  <g class="cls-5">
    <path class="cls-6" d="M777.2,191.1h58.3v-13.1h-40.2v-21.3l37,.6v-11.9l-37,.6v-18.1h39.7v-13.1h-57.8c.3,8.9.6,26.6.6,38.3s-.3,29.6-.6,38M726.5,192.4c13.6,0,19.7-4.1,24.2-14.1h1v12.8c0,0,16.6,0,16.6,0-.2-13.8-.2-25.3-.2-37.7h-33v10.4h9c5.1,0,7.7,1.8,7.7,7.6-3.7,5.2-8.3,6.9-16.2,6.9-13,0-19-7-19-24.1s.3-15.7,1.7-25.1c3.8-1,8.2-1.7,13.2-1.7,11.1,0,16.3,5.6,17.8,17.8l18.4-2.1c-2-20-13.7-29.5-34.4-29.5s-35.3,12.7-35.3,39.4,9.6,39.4,28.5,39.4M668.9,163.1h-21.6c3.4-13.1,6.8-26.3,10.3-40.4h1c3.5,14.1,6.8,27.3,10.3,40.4M621,191.1h18.6l4.7-17h27.5l4.6,17h18.8c-7.7-26-14.1-48.8-21.6-76.3h-31c-7.6,27.6-13.9,50.3-21.6,76.3M570,191.1h50.4v-13.2h-32c-.2-5.3-.3-15.3-.3-25.7s.1-24.8.4-37.4h-18.5c.4,12.6.5,26.8.5,38.2s0,21.7-.5,38.1M517.2,156.8c-1.4-.4-1.9-1.6-1.9-3.1v-26.9h13.1c10.3,0,16.1,4,16.1,14.7s-5.6,14.4-14.2,15.3h-13.1ZM497.4,191.1h18.3c-.2-7-.3-13.7-.3-17.8s0-6.9-.8-12.6l1.1-.2c2.6,6.5,6.1,8.3,16.1,8.3,22.7,0,30.9-8.7,30.9-26.7s-9.7-27.3-30.9-27.3h-34.4l.2,38.2-.2,38.1ZM441.7,163.1h-21.6c3.4-13.1,6.8-26.3,10.3-40.4h1c3.5,14.1,6.8,27.3,10.3,40.4M393.8,191.1h18.6l4.7-17h27.5l4.6,17h18.8c-7.7-26-14.1-48.8-21.6-76.3h-31c-7.6,27.6-13.9,50.3-21.6,76.3M342.8,191.1h50.4v-13.2h-32c-.2-5.3-.3-15.3-.3-25.7s.1-24.8.4-37.4h-18.5c.4,12.6.5,26.8.5,38.2s-.1,21.7-.5,38.1"/>
    <path class="cls-6" d="M801,56.2h-14c-1.2-.9-1.6-2.4-1.6-4.2v-20.2h14c10,0,14.9,3.3,14.9,12.3s-4.4,11.6-13.3,12.1M767.3,96.1h18.2v-28.7h14.3c8.8,0,12.6,4.1,13.7,12.2.7,5.7,1.7,11.6,3.3,16.5h19.5c-1.6-4.4-3.9-13.1-4.8-18-1.9-10.4-7.4-15.5-22.3-16v-1.4c15.4-.1,23.6-5.5,23.6-20.1s-5.8-20.8-29.9-20.8h-35.6c.3,11.2.6,26.8.6,38.2s-.3,27-.6,38.1M724.5,97.3c25.2,0,32.8-10.8,32.8-33.1V19.8h-17.5v44.5c0,7.5-.4,11.8-1.2,16.6-3.7,1.5-7.5,2.2-13,2.2-9.2,0-14.8-4.7-14.8-18.4V19.8h-17.5v44.4c0,22.3,9.3,33.1,31.2,33.1M654,97.4c16.7,0,31.6-7.6,31.6-23.4,0-32.5-44.9-9.6-44.9-32.2s.4-5.2,1.2-7.7c3.4-.9,6.5-1.2,10.7-1.2,9.9,0,13.8,4,14.7,13.4l17.7-1.7c-1.8-19-13.6-26-32.8-26s-29.4,7.5-29.4,21.9c0,33.6,44.7,9.8,44.7,32.4s-.5,5.8-1.2,8.8c-3.6.9-8,1.4-12.2,1.4-9.9,0-14.2-4.1-15.4-12.6l-18.5.5c1.1,16.1,10.1,26.4,33.8,26.4M530.3,78.7v17.4h61.1v-16.4c-12.2,0-26.5,0-45.2.4v-1.3c16.8-14.3,30.7-28.2,44.4-42.6v-16.4h-59.5v16.3c11.8,0,25.5,0,43.6-.4v1.1c-16.7,14-30.7,27.8-44.4,41.9M464.2,78.7v17.4h61.1v-16.4c-12.2,0-26.5,0-45.2.4v-1.3c16.8-14.3,30.7-28.2,44.4-42.6v-16.4h-59.5v16.3c11.8,0,25.5,0,43.6-.4v1.1c-16.7,14-30.7,27.8-44.4,41.9M435.4,68.1h-21.6c3.4-13.1,6.8-26.3,10.3-40.4h1c3.5,14.1,6.8,27.3,10.3,40.4M387.5,96.1h18.6l4.7-17h27.5l4.6,17h18.8c-7.7-26-14.1-48.8-21.6-76.3h-31c-7.6,27.6-13.9,50.3-21.6,76.3M353.2,97.4c19.6,0,29.2-11.2,29.2-30.4s-.2-31,.5-47.2h-45.8v12.4h27.4c0-.1,0,34.5,0,34.5,0,5.3-.3,10-1.1,15-2.6.6-5.6,1.1-9.1,1.1-8.7,0-12.2-3.5-12.6-14.3h-17.6c0,19.8,9.4,28.9,29.1,28.9"/>
    <path class="cls-6" d="M511.1,1170.1h8.2v-15.7c0,0,13.5,0,13.5,0,0,4,0,11.2-.2,15.7h8.2c-.1-3.9-.1-11.1-.1-17.1s0-13.3.1-17.2h-8.2c.1,4.5.2,9.5.2,13.6h-13.6v-13.6c0,0-8.1,0-8.1,0,.1,5.8.2,11.8.2,17.2s0,11.4-.2,17.1M492,1170.7c8.8,0,14.4-4.4,15.6-12.8h-8.1c0,1.7-.3,3.7-.6,5.8-1.7.4-3.4.8-5.6.8-5.9,0-8.5-3.2-8.5-10.9s.1-7.1.8-11.3c1.7-.4,3.7-.8,5.9-.8,5,0,7.3,2.5,8,8.3l8.3-.9c-1-9.3-6.2-13.6-15.5-13.6s-15.9,5.7-15.9,17.7,5.4,17.7,15.7,17.7M471.8,1170.8c3.2,0,4.5-1.3,4.5-3.4s-1.2-3.4-4.5-3.4-4.4,1.2-4.4,3.4,1.2,3.4,4.4,3.4M439.5,1170.1h26.2v-5.9h-18.1v-9.6l16.6.3v-5.4l-16.6.3v-8.1h17.9v-5.9h-26c.1,4,.3,12,.3,17.2s-.1,13.3-.3,17.1M416.7,1170.7c6.1,0,8.9-1.8,10.9-6.3h.5v5.8s7.5,0,7.5,0c0-6.2,0-11.4,0-17h-14.9v4.7h4.1c2.3,0,3.5.8,3.5,3.4-1.7,2.3-3.7,3.1-7.3,3.1-5.9,0-8.5-3.2-8.5-10.8s.1-7.1.8-11.3c1.7-.4,3.7-.8,5.9-.8,5,0,7.3,2.5,8,8l8.3-.9c-.9-9-6.2-13.3-15.5-13.3s-15.9,5.7-15.9,17.7,4.3,17.7,12.8,17.7M391.8,1157.5h-9.7c1.5-5.9,3.1-11.8,4.6-18.2h.4c1.6,6.3,3.1,12.3,4.6,18.2M370.3,1170.1h8.4l2.1-7.6h12.4l2.1,7.6h8.5c-3.5-11.7-6.3-22-9.7-34.3h-13.9c-3.4,12.4-6.3,22.6-9.7,34.3M346.7,1170.1h22.7v-5.9h-14.4c0-2.4-.1-6.9-.1-11.6s0-11.2.2-16.8h-8.3c.2,5.7.2,12.1.2,17.2s0,9.8-.2,17.1M323.2,1154.7c-.6-.2-.9-.7-.9-1.4v-12.1h5.9c4.6,0,7.2,1.8,7.2,6.6s-2.5,6.5-6.4,6.9h-5.9ZM314.3,1170.1h8.2c0-3.1-.1-6.2-.1-8s0-3.1-.4-5.7h.5c1.2,2.8,2.7,3.6,7.2,3.6,10.2,0,13.9-3.9,13.9-12s-4.4-12.3-13.9-12.3h-15.5v17.2c0,0,0,17.1,0,17.1ZM299.9,1157.5h-9.7c1.5-5.9,3.1-11.8,4.6-18.2h.5c1.6,6.3,3.1,12.3,4.6,18.2M278.3,1170.1h8.4l2.1-7.6h12.4l2.1,7.6h8.5c-3.5-11.7-6.3-22-9.7-34.3h-14c-3.4,12.4-6.3,22.6-9.7,34.3M254.7,1170.1h22.7v-5.9h-14.4c0-2.4-.1-6.9-.1-11.6s0-11.2.2-16.8h-8.3c.2,5.7.2,12.1.2,17.2s0,9.8-.2,17.1M235.5,1152.2h-6.3c-.5-.4-.7-1.1-.7-1.9v-9.1h6.3c4.5,0,6.7,1.5,6.7,5.5s-2,5.2-6,5.4M220.4,1170.1h8.2v-12.9h6.4c4,0,5.7,1.8,6.2,5.5.3,2.6.8,5.2,1.5,7.4h8.8c-.7-2-1.8-5.9-2.2-8.1-.9-4.7-3.3-7-10-7.2v-.6c6.9,0,10.6-2.5,10.6-9s-2.6-9.4-13.5-9.4h-16c.1,5,.3,12.1.3,17.2s-.1,12.1-.3,17.1M201.1,1170.7c11.3,0,14.8-4.9,14.8-14.9v-20h-7.9v20c0,3.4-.2,5.3-.5,7.5-1.7.7-3.4,1-5.9,1-4.1,0-6.7-2.1-6.7-8.3v-20.2h-7.9v20c0,10,4.2,14.9,14,14.9M169.4,1170.7c7.5,0,14.2-3.4,14.2-10.5,0-14.6-20.2-4.3-20.2-14.5s.2-2.3.5-3.5c1.5-.4,2.9-.5,4.8-.5,4.5,0,6.2,1.8,6.6,6l8-.8c-.8-8.5-6.1-11.7-14.8-11.7s-13.2,3.4-13.2,9.9c0,15.1,20.1,4.4,20.1,14.6s-.2,2.6-.5,4c-1.6.4-3.6.6-5.5.6-4.5,0-6.4-1.8-6.9-5.7l-8.3.2c.5,7.2,4.5,11.9,15.2,11.9M124.8,1162.3v7.8h27.5v-7.4c-5.5,0-11.9,0-20.3.2v-.6c7.6-6.4,13.8-12.7,20-19.2v-7.4h-26.8v7.3c5.3,0,11.5,0,19.6-.2v.5c-7.5,6.3-13.8,12.5-20,18.9M94.4,1162.3v7.8h27.5v-7.4c-5.5,0-11.9,0-20.3.2v-.6c7.6-6.4,13.8-12.7,20-19.2v-7.4h-26.8v7.3c5.3,0,11.5,0,19.6-.2v.5c-7.5,6.3-13.8,12.5-20,18.9M81.1,1157.5h-9.7c1.5-5.9,3.1-11.8,4.6-18.2h.5c1.6,6.3,3.1,12.3,4.6,18.2M59.5,1170.1h8.4l2.1-7.6h12.4l2.1,7.6h8.5c-3.5-11.7-6.3-22-9.7-34.3h-14c-3.4,12.4-6.3,22.6-9.7,34.3M45,1170.7c8.8,0,13.1-5,13.1-13.7s0-13.9.2-21.2h-20.6v5.6h12.3s0,15.5,0,15.5c0,2.4-.1,4.5-.5,6.7-1.2.3-2.5.5-4.1.5-3.9,0-5.5-1.6-5.7-6.4h-7.9c0,8.9,4.2,13,13.1,13"/>
    <path class="cls-6" d="M264.3,1118.4h26.2v-5.9h-18.1v-9.6l16.7.3v-5.4l-16.7.3v-8.1h17.9v-5.9h-26c.1,4,.3,12,.3,17.2s-.1,13.3-.3,17.1M245.1,1100.5h-6.3c-.5-.4-.7-1.1-.7-1.9v-9.1h6.3c4.5,0,6.7,1.5,6.7,5.5s-2,5.2-6,5.4M229.9,1118.4h8.2v-12.9h6.4c4,0,5.7,1.8,6.2,5.5.3,2.6.8,5.2,1.5,7.4h8.8c-.7-2-1.8-5.9-2.2-8.1-.9-4.7-3.3-7-10-7.2v-.6c6.9,0,10.6-2.5,10.6-9s-2.6-9.4-13.5-9.4h-16c.1,5,.3,12.1.3,17.2s-.1,12.1-.3,17.1M211.4,1098.9h-6.3c-.6-.3-.8-.7-.8-1.5v-8h6.4c4.6,0,6.8,1.4,6.8,4.8s-1.8,4.5-6,4.7M212.2,1112.9h-7.1c-.6-.3-.8-.8-.8-1.6v-8.2h7.1c4.9,0,7,1.5,7,5s-2,4.6-6.3,4.8M196.5,1118.4h16.7c10.1,0,13.5-3.1,13.5-9.1s-3.1-8.3-11.7-8.3v-.6c8.2-.2,10.9-3.5,10.9-8.1s-3.1-8.2-13.5-8.2h-15.8c.1,4.8.2,12.8.2,17.2s0,12.4-.2,17.1M183.5,1118.4h8.2c-.2-5.7-.2-11.4-.2-17.2s0-11.5.2-17.1h-8.2c.1,5.7.2,11.4.2,17.2s0,11.5-.2,17.1M158.5,1118.4h22.7v-5.9h-14.4c0-2.4-.1-6.9-.1-11.6s0-11.2.2-16.8h-8.3c.2,5.7.2,12.1.2,17.2s0,9.8-.2,17.1M111.5,1118.4h8.9l7.5-14.7h.9l7.5,14.7h8.9c-2.6-4.6-5-9.2-7.5-13.8-1.1-2.2-2.7-3.3-5-3.5v-.6c2.2-.1,3.9-1.3,5-3.5,2.3-4.4,4.5-8.7,6.9-13h-8.9l-6.9,14.3h-.9l-6.9-14.3h-8.9c2.4,4.3,4.6,8.6,6.9,13,1.1,2.2,2.7,3.3,4.9,3.5v.6c-2.2.1-3.9,1.3-4.9,3.5-2.5,4.6-4.9,9.2-7.5,13.8M100.3,1118.4h8.2c-.2-5.7-.2-11.4-.2-17.2s0-11.5.2-17.1h-8.2c.1,5.7.2,11.4.2,17.2s0,11.5-.2,17.1M81.1,1100.5h-6.3c-.5-.4-.7-1.1-.7-1.9v-9.1h6.3c4.5,0,6.7,1.5,6.7,5.5s-2,5.2-6,5.4M66,1118.4h8.2v-12.9h6.4c4,0,5.7,1.8,6.2,5.5.3,2.6.8,5.2,1.5,7.4h8.8c-.7-2-1.8-5.9-2.2-8.1-.9-4.7-3.3-7-10-7.2v-.6c6.9,0,10.6-2.5,10.6-9s-2.6-9.4-13.5-9.4h-16c.1,5,.3,12.1.3,17.2s-.1,12.1-.3,17.1M42.4,1103c-.6-.2-.9-.7-.9-1.4v-12.1h5.9c4.6,0,7.2,1.8,7.2,6.6s-2.5,6.5-6.4,6.9h-5.9ZM33.5,1118.4h8.2c0-3.2-.1-6.2-.1-8s0-3.1-.4-5.7h.5c1.2,2.8,2.7,3.6,7.2,3.6,10.2,0,13.9-3.9,13.9-12s-4.4-12.3-13.9-12.3h-15.5v17.2c0,0,0,17.1,0,17.1Z"/>
    <path class="cls-6" d="M819.9,246.9c10.3,0,15.8-5.4,15.8-13.8s-4-12.5-11.8-12.5-7.8,1.5-10.1,5.2h-.6c0-.1.6-10.7.6-10.7,6.9,0,13.4,0,19.9.2v-7.2h-27.4l-.6,20.5,6.8.8c2.5-2.2,4.9-3,8.2-3s6.1,2.2,6.1,7-.3,4.3-.9,6.1c-1.8.6-3.7,1-6,1-5,0-7.1-2.2-7.1-8.2h-8.8c0,10.6,5.5,14.5,16,14.5M770.9,242.3v4h30.3v-8.3c-5.2.2-9.9.2-16.2.2s-5.6.1-8.9.2v-.5c6.2-7,25.2-3,25.2-18.4s-5-11.9-14.9-11.9-15.5,4.5-15.5,14.8h9c0-2.8.1-5.2.6-7.7,2.2-.5,3.9-.8,6-.8,3.9,0,5.9,2,5.9,5.7,0,10.5-21.4,5.5-21.4,22.7M751.8,240.6c-5.6,0-8.2-3.7-8.2-12.5s.1-8,.8-12.8c2.1-1.1,4.1-1.4,6.4-1.4,5.5,0,8.2,3.7,8.2,12.5s-.1,8-.8,12.8c-2.1,1-4.1,1.4-6.4,1.4M751.3,246.9c10.8,0,16.7-6.4,16.7-19.7s-5.4-19.7-16.7-19.7-16.8,6.3-16.8,19.7,5.3,19.7,16.8,19.7M701.5,242.3v4h30.3v-8.3c-5.2.2-9.9.2-16.2.2s-5.6.1-8.8.2v-.5c6.2-7,25.2-3,25.2-18.4s-5.1-11.9-14.9-11.9-15.5,4.5-15.5,14.8h9c0-2.8.1-5.2.6-7.7,2.2-.5,3.9-.8,6-.8,3.9,0,5.8,2,5.8,5.7,0,10.5-21.4,5.5-21.4,22.7M668.1,246.3h9.2c-.1-6.1-.3-12.2-.3-18.4s0-9.2.2-13.3h10.7v-6.4h-30.3v6.4h10.6c.1,4.2.2,9.1.2,13.3,0,6.2-.2,12.3-.4,18.4M638.9,246.9c12.6,0,16.4-5.4,16.4-16.5v-22.2h-8.8v22.2c0,3.8-.2,5.9-.6,8.3-1.9.8-3.8,1.1-6.5,1.1-4.6,0-7.4-2.4-7.4-9.2v-22.5h-8.8v22.2c0,11.1,4.7,16.5,15.6,16.5M602.7,240c-6.5,0-9.4-3.6-9.4-12.2s.1-7.9.8-12.6c1.9-.5,4.1-.9,6.6-.9,6.5,0,9.5,3.5,9.5,12.2s-.2,7.9-.9,12.6c-1.9.5-4.1.9-6.6.9M601.7,246.9c11.7,0,17.8-6.4,17.8-19.7s-6.1-19.7-17.8-19.7-17.8,6.3-17.8,19.7,6,19.7,17.8,19.7M570.6,232.3h-10.8c1.7-6.6,3.4-13.2,5.2-20.2h.5c1.8,7,3.4,13.6,5.2,20.2M546.7,246.3h9.3l2.3-8.5h13.8l2.3,8.5h9.4c-3.8-13-7-24.4-10.8-38.2h-15.5c-3.8,13.8-7,25.2-10.8,38.2M517.2,213.9c4.5,0,6.8,3,6.8,8.1v2.7c-1.5,1.9-4.1,2.8-6.8,2.8-4.5,0-6.8-2.1-6.8-6.8s.3-4,.8-5.9c1.8-.5,3.6-.8,6-.8M517.3,207.5c-9.5,0-15.8,4.4-15.8,13s4.8,12.3,12,12.3,7.2-1.1,9.9-5.1h.6c0,5.7-.3,8.8-1,12.2-2,.4-3.9.7-5.9.7-3.4,0-5.3-1.5-6-5.7l-8.8,1c1.4,7.5,5.9,11,14.6,11s16.1-8,16.1-20.5-5.9-18.8-15.9-18.8M481.2,230.2h17.2v-5.3h-17.2v5.3ZM462,224.3c-4.6,0-6.4-1.8-6.4-5.2s.2-3.2.8-4.7c1.6-.4,3.4-.5,5.6-.5,4.3,0,6.4,1.8,6.4,5.2s-.2,3-.8,4.6c-1.6.4-3.5.6-5.6.6M462,240.5c-5.1,0-7-2.1-7-5.5s.1-3.2.6-5.1c1.9-.4,3.9-.6,6.2-.6,4.9,0,7.1,2,7.1,5.5s-.2,3.1-.7,5c-1.8.5-3.9.7-6.2.7M461.9,246.9c11.8,0,16-4.2,16-11s-2.8-8-9-9.2v-.8c5.6-1,7.9-3.8,7.9-8.3,0-6.6-4.6-10.1-14.9-10.1s-15,3.5-15,10.1,2.3,7.3,8,8.3v.8c-6.4,1.1-9.1,4.5-9.1,9.2,0,6.8,4.2,11,16.1,11"/>
    <path class="cls-6" d="M806.5,301.5h29.2v-6.5h-20.1v-10.7l18.5.3v-5.9l-18.5.3v-9h19.8v-6.6h-28.9c.2,4.5.3,13.3.3,19.2s-.2,14.8-.3,19M785.2,302.2c9.8,0,16.1-4.9,17.3-14.2h-9.1c0,1.9-.3,4.1-.7,6.5-1.9.4-3.8.8-6.2.8-6.5,0-9.5-3.5-9.5-12.2s.1-7.9.8-12.6c1.9-.5,4.1-.8,6.6-.8,5.5,0,8.2,2.8,8.9,9.2l9.2-1c-1.1-10.3-6.8-15.2-17.2-15.2s-17.6,6.3-17.6,19.7,6,19.7,17.4,19.7M729.5,301.5h8.9c-.2-6.2-.2-14-.2-22.3s0-6.4-.6-9.9h.7c1.2,4.4,2.3,7.3,3.4,10.2l9.4,22h12.8c0-6.3-.3-11.2-.3-19s0-12.8.3-19.1h-9c.2,5.9.3,15.2.3,22.4s0,6.3.6,9.9h-.7c-1.2-4.1-2.3-7.3-3.4-10.2l-9.2-22.1h-13c.1,4.8.4,11.2.4,19.1s-.2,12.9-.3,19M713.4,287.5h-10.8c1.7-6.5,3.4-13.2,5.2-20.2h.5c1.8,7,3.4,13.7,5.1,20.2M689.5,301.5h9.3l2.3-8.5h13.8l2.3,8.5h9.4c-3.8-13-7-24.4-10.8-38.2h-15.5c-3.8,13.8-7,25.2-10.8,38.2M641.6,301.5h8.6c0-6,0-11.3,0-16.9s0-9.5,0-13.8h.5l8.8,30.7h9l8.8-30.7h.5v13.8s0,16.9,0,16.9h8.6c-.2-6.3-.4-12.7-.4-19s0-12.8,0-19.1h-13.8l-8,29.5h-.8l-8.1-29.5h-13.8c.1,6.3.1,12.8.1,19.1s-.2,12.6-.5,19M620.3,281.6h-7c-.6-.5-.8-1.2-.8-2.1v-10.1h7c5,0,7.4,1.7,7.4,6.2s-2.2,5.8-6.6,6M603.4,301.5h9.1v-14.3h7.1c4.4,0,6.3,2,6.9,6.1.3,2.8.8,5.8,1.6,8.2h9.8c-.8-2.2-1.9-6.5-2.4-9-1-5.2-3.7-7.8-11.2-8v-.7c7.7,0,11.8-2.8,11.8-10s-2.9-10.4-14.9-10.4h-17.8c.2,5.6.3,13.4.3,19.1s-.2,13.5-.3,19M569.8,301.5h29.2v-6.5h-20.1v-10.7l18.5.3v-5.9l-18.5.3v-9h19.9v-6.6h-28.9c.2,4.5.3,13.3.3,19.2s-.1,14.8-.3,19M531.3,301.5h9.1v-17.5c-.1,0,15,0,15,0,0,4.5,0,12.5-.2,17.5h9.2c-.2-4.3-.2-12.3-.2-19s0-14.8.2-19.1h-9.2c.2,5.1.2,10.6.2,15.2h-15.1v-15.2c.1,0-9,0-9,0,.1,6.4.2,13.1.2,19.1s-.1,12.7-.2,19"/>
  </g>
  <g>
    <rect class="cls-1" x="292.3" y="337.4" width="504" height="139.2"/>
    <path class="cls-6" d="M621.7,387.4h17.7c0,11.1,4.2,16.3,14.8,16.3s8.5-.5,12.2-1.7c.9-3.7,1.5-7.1,1.5-11.7,0-8.1-3.8-12.4-14.2-12.4h-11.9v-8l28.7-15.6v-1.5c-16.1.3-29.6.4-47.2.8v-14.7h61v17.2l-24.8,12.9v1.5c19.1.1,26.4,8,26.4,21.5s-11.6,24.5-32.1,24.5-32.1-7.9-32.1-29.1Z"/>
    <path class="cls-6" d="M691,387.4h17.7c0,11.1,4.2,16.3,14.8,16.3s8.5-.5,12.2-1.7c.9-3.7,1.5-7.1,1.5-11.7,0-8.1-3.8-12.4-14.2-12.4h-11.9v-8l28.7-15.6v-1.5c-16.1.3-29.6.4-47.2.8v-14.7h61v17.2l-24.8,12.9v1.5c19.1.1,26.4,8,26.4,21.5s-11.6,24.5-32.1,24.5-32.1-7.9-32.1-29.1Z"/>
    <path class="cls-6" d="M761,359.8c0-6.8-.2-17.1-.3-22.3h33.7v7.6h-23.1v10.6l21.6-.4v6.9l-21.6-.4v12.4h23.4v7.6h-34c.2-4.9.3-15.7.3-22.2Z"/>
  </g>
</svg>